STARTFONT 2.1
FONT -Adobe-ITC Souvenir-Light-I-Normal--25-180-100-100-P-139-ISO8859-1
SIZE 18 100 100
FONTBOUNDINGBOX 33 29 -3 -5

STARTPROPERTIES 25
FONTNAME_REGISTRY ""
FAMILY_NAME "ITC Souvenir"
FOUNDRY "Adobe"
WEIGHT_NAME "Light"
SLANT "I"
SETWIDTH_NAME "Normal"
ADD_STYLE_NAME ""
PIXEL_SIZE 25
POINT_SIZE 180
RESOLUTION_X 100
RESOLUTION_Y 100
SPACING "P"
AVERAGE_WIDTH 139
CHARSET_REGISTRY "ISO8859"
CHARSET_ENCODING "1"
CHARSET_COLLECTIONS "ASCII ISO8859-1 ADOBE-STANDARD"
FULL_NAME "ITC Souvenir Light Italic"
COPYRIGHT "Copyright (c) 1987 Adobe Systems, Inc., Portions Copyright 1988 Digital Equipment Corp."
CAP_HEIGHT 19
X_HEIGHT 12
WEIGHT 10
QUAD_WIDTH 15
DEFAULT_CHAR 32
FONT_DESCENT 5
FONT_ASCENT 22
ENDPROPERTIES

CHARS 190

STARTCHAR space
ENCODING 32
SWIDTH 300 0
DWIDTH 8 0
BBX 1 1 0 0
BITMAP
00
ENDCHAR

STARTCHAR exclam
ENCODING 33
SWIDTH 300 0
DWIDTH 8 0
BBX 4 19 2 0
BITMAP
30
30
30
30
30
30
30
60
60
60
60
60
40
40
00
00
C0
C0
C0
ENDCHAR

STARTCHAR quotedbl
ENCODING 34
SWIDTH 360 0
DWIDTH 9 0
BBX 7 7 2 12
BITMAP
66
66
66
44
CC
CC
CC
ENDCHAR

STARTCHAR numbersign
ENCODING 35
SWIDTH 600 0
DWIDTH 15 0
BBX 13 18 1 1
BITMAP
0330
0330
0220
0660
0660
3FF8
3FF8
0CC0
0880
1980
1980
FFE0
FFE0
3300
3300
2200
6600
6600
ENDCHAR

STARTCHAR dollar
ENCODING 36
SWIDTH 600 0
DWIDTH 15 0
BBX 12 20 1 -1
BITMAP
0180
0180
07E0
1C70
3030
3030
3800
3C00
1F00
0780
03C0
00E0
C060
C060
C060
E0C0
7180
3F00
0C00
0C00
ENDCHAR

STARTCHAR percent
ENCODING 37
SWIDTH 900 0
DWIDTH 22 0
BBX 19 19 1 0
BITMAP
1C0100
360300
630600
430400
C30C00
C31800
C31000
C23000
C66380
6C46C0
38CC60
018860
011860
031860
061860
041840
0C18C0
180D80
100700
ENDCHAR

STARTCHAR ampersand
ENCODING 38
SWIDTH 820 0
DWIDTH 21 0
BBX 18 19 1 0
BITMAP
01E000
07F000
0E1800
0C1800
0C1800
0C3000
0E6000
07C000
0787C0
0F0380
3B8300
718600
E1C400
C0EC00
C07800
C07000
E0F800
7F9F80
3F0700
ENDCHAR

STARTCHAR quoteright
ENCODING 39
SWIDTH 300 0
DWIDTH 8 0
BBX 3 6 4 13
BITMAP
40
E0
E0
60
40
80
ENDCHAR

STARTCHAR parenleft
ENCODING 40
SWIDTH 260 0
DWIDTH 7 0
BBX 6 23 0 -4
BITMAP
04
0C
08
18
10
30
30
60
60
60
60
C0
C0
C0
C0
C0
C0
C0
40
60
60
60
20
ENDCHAR

STARTCHAR parenright
ENCODING 41
SWIDTH 260 0
DWIDTH 7 0
BBX 6 23 0 -4
BITMAP
10
10
18
08
0C
0C
0C
0C
0C
0C
0C
0C
0C
0C
18
18
18
30
30
20
60
C0
80
ENDCHAR

STARTCHAR asterisk
ENCODING 42
SWIDTH 540 0
DWIDTH 14 0
BBX 11 11 2 8
BITMAP
0700
0700
E700
E400
F6E0
1FE0
1EE0
FC00
E700
E700
0700
ENDCHAR

STARTCHAR plus
ENCODING 43
SWIDTH 660 0
DWIDTH 15 0
BBX 12 12 1 1
BITMAP
0600
0600
0600
0600
0600
FFF0
FFF0
0600
0600
0600
0600
0600
ENDCHAR

STARTCHAR comma
ENCODING 44
SWIDTH 300 0
DWIDTH 8 0
BBX 3 6 1 -3
BITMAP
60
60
60
20
40
80
ENDCHAR

STARTCHAR minus
ENCODING 45
SWIDTH 660 0
DWIDTH 15 0
BBX 12 2 1 6
BITMAP
FFF0
FFF0
ENDCHAR

STARTCHAR period
ENCODING 46
SWIDTH 300 0
DWIDTH 8 0
BBX 2 3 2 0
BITMAP
C0
C0
C0
ENDCHAR

STARTCHAR slash
ENCODING 47
SWIDTH 220 0
DWIDTH 7 0
BBX 12 22 -3 -3
BITMAP
0010
0030
0020
0060
0040
00C0
0080
0180
0100
0300
0200
0600
0400
0C00
0800
1800
1000
3000
2000
6000
4000
C000
ENDCHAR

STARTCHAR zero
ENCODING 48
SWIDTH 600 0
DWIDTH 15 0
BBX 13 19 1 0
BITMAP
03C0
0FF0
1830
3038
7018
6018
6018
C018
C018
C018
C018
C018
C030
C030
C070
E060
60C0
7FC0
1E00
ENDCHAR

STARTCHAR one
ENCODING 49
SWIDTH 600 0
DWIDTH 15 0
BBX 8 19 2 0
BITMAP
03
0F
3F
06
06
06
0E
0C
0C
0C
0C
0C
1C
18
18
18
18
3C
FE
ENDCHAR

STARTCHAR two
ENCODING 50
SWIDTH 600 0
DWIDTH 15 0
BBX 13 19 1 0
BITMAP
03C0
0FF0
1C38
3818
3018
3818
1830
0070
00E0
01C0
0780
0E00
1C00
3800
7000
6020
C060
FFC0
FF80
ENDCHAR

STARTCHAR three
ENCODING 51
SWIDTH 600 0
DWIDTH 15 0
BBX 13 19 1 0
BITMAP
03C0
0FF0
1C38
1818
1818
0018
0018
0030
0FE0
0FC0
00E0
0070
0030
0030
C070
C060
E0E0
7FC0
1F00
ENDCHAR

STARTCHAR four
ENCODING 52
SWIDTH 600 0
DWIDTH 15 0
BBX 13 19 1 0
BITMAP
00E0
01E0
03E0
0760
0E60
0C60
1860
38C0
30C0
60C0
60C0
C0C0
FFF8
FFF8
0180
0180
0180
0380
07C0
ENDCHAR

STARTCHAR five
ENCODING 53
SWIDTH 600 0
DWIDTH 15 0
BBX 13 19 1 0
BITMAP
0FF8
0FF8
0C00
1800
1800
1800
1000
37C0
3FE0
3870
3030
0030
0030
0030
6070
E060
E1E0
7FC0
3F00
ENDCHAR

STARTCHAR six
ENCODING 54
SWIDTH 600 0
DWIDTH 15 0
BBX 12 19 1 0
BITMAP
00F0
03E0
0700
0E00
1C00
3800
3000
7380
6FE0
F870
F030
E030
E030
C070
C060
C0E0
61C0
7F80
1E00
ENDCHAR

STARTCHAR seven
ENCODING 55
SWIDTH 600 0
DWIDTH 15 0
BBX 12 19 2 0
BITMAP
7FF0
7FF0
C060
8060
00C0
00C0
0180
0380
0300
0700
0600
0E00
0C00
1C00
3800
3800
7000
7000
6000
ENDCHAR

STARTCHAR eight
ENCODING 56
SWIDTH 600 0
DWIDTH 15 0
BBX 13 19 1 0
BITMAP
03E0
0FF0
1C38
1818
1818
1838
1C70
0EE0
0780
0F80
39C0
70E0
6060
C060
C060
C060
E0C0
7FC0
3F00
ENDCHAR

STARTCHAR nine
ENCODING 57
SWIDTH 600 0
DWIDTH 15 0
BBX 12 19 1 0
BITMAP
0780
1FE0
38E0
7070
6030
E030
C030
C030
E070
60F0
7FE0
1F60
00E0
00C0
01C0
0380
0700
7E00
F800
ENDCHAR

STARTCHAR colon
ENCODING 58
SWIDTH 300 0
DWIDTH 8 0
BBX 3 11 2 0
BITMAP
60
60
60
00
00
00
00
00
C0
C0
C0
ENDCHAR

STARTCHAR semicolon
ENCODING 59
SWIDTH 300 0
DWIDTH 8 0
BBX 4 14 1 -3
BITMAP
30
30
30
00
00
00
00
00
60
60
60
20
40
80
ENDCHAR

STARTCHAR less
ENCODING 60
SWIDTH 660 0
DWIDTH 15 0
BBX 14 14 0 0
BITMAP
000C
003C
00F0
03C0
0F00
3C00
E000
E000
3C00
0F00
03C0
00F0
003C
000C
ENDCHAR

STARTCHAR equal
ENCODING 61
SWIDTH 660 0
DWIDTH 15 0
BBX 12 6 1 4
BITMAP
FFF0
FFF0
0000
0000
FFF0
FFF0
ENDCHAR

STARTCHAR greater
ENCODING 62
SWIDTH 660 0
DWIDTH 15 0
BBX 14 14 1 0
BITMAP
C000
F000
3C00
0F00
03C0
00F0
001C
001C
00F0
03C0
0F00
3C00
F000
C000
ENDCHAR

STARTCHAR question
ENCODING 63
SWIDTH 420 0
DWIDTH 11 0
BBX 10 19 1 0
BITMAP
1E00
7F80
E1C0
C0C0
00C0
00C0
0180
0380
0E00
1C00
3000
6000
4000
4000
0000
0000
C000
C000
C000
ENDCHAR

STARTCHAR at
ENCODING 64
SWIDTH 820 0
DWIDTH 21 0
BBX 18 19 1 0
BITMAP
03F800
0E0E00
380380
200080
6076C0
41FE40
C38C40
870C40
861840
8E1840
8C18C0
8C3880
CC3100
4EF340
679EC0
200080
380380
0E0E00
03F800
ENDCHAR

STARTCHAR A
ENCODING 65
SWIDTH 740 0
DWIDTH 19 0
BBX 18 19 0 0
BITMAP
001800
003800
007C00
00EC00
00CC00
018C00
038600
030600
060600
060600
0C0300
0FFF00
1FFF00
180300
300300
300300
600300
600380
F007C0
ENDCHAR

STARTCHAR B
ENCODING 66
SWIDTH 680 0
DWIDTH 17 0
BBX 16 19 -1 0
BITMAP
0FF8
07FE
0607
0603
0C03
0C03
0C06
0C1C
0CF0
1FFC
1C0E
1806
1803
1803
1803
3006
301E
7FFC
FFF0
ENDCHAR

STARTCHAR C
ENCODING 67
SWIDTH 720 0
DWIDTH 18 0
BBX 16 19 1 0
BITMAP
01F8
07FF
1E07
1C03
3003
7001
6000
6000
C000
C000
C000
C000
C000
E000
6006
7006
3C1C
1FF8
07E0
ENDCHAR

STARTCHAR D
ENCODING 68
SWIDTH 760 0
DWIDTH 19 0
BBX 18 19 0 0
BITMAP
1FF800
0FFE00
0C0700
0C0380
0C0180
0C0180
1C00C0
1800C0
1800C0
1800C0
1800C0
180180
380180
300380
300300
300F00
301C00
7FF800
FFE000
ENDCHAR

STARTCHAR E
ENCODING 69
SWIDTH 660 0
DWIDTH 16 0
BBX 15 19 0 0
BITMAP
1FFE
0FFE
0C02
0C00
1C00
1800
1800
1810
1FF0
1FF0
1810
1800
3800
3000
3000
3000
3004
7FFC
FFF8
ENDCHAR

STARTCHAR F
ENCODING 70
SWIDTH 580 0
DWIDTH 14 0
BBX 15 19 0 0
BITMAP
1FFE
0FFE
0C02
0C00
1C00
1800
1800
1800
1810
1FF0
1FF0
1810
3800
3000
3000
3000
3000
7000
F800
ENDCHAR

STARTCHAR G
ENCODING 71
SWIDTH 760 0
DWIDTH 19 0
BBX 17 19 1 0
BITMAP
01F800
07FF00
1E0700
1C0300
300300
700100
600000
600000
C00000
C01F80
C01F80
C00300
C00300
E00600
600600
700600
3C1E00
1FFC00
07E000
ENDCHAR

STARTCHAR H
ENCODING 72
SWIDTH 820 0
DWIDTH 20 0
BBX 20 19 0 0
BITMAP
1F01F0
0E01E0
0C00C0
0C00C0
0C00C0
0C00C0
180180
180180
1FFF80
1FFF80
180180
180180
380380
300300
300300
300300
300300
700700
F80F80
ENDCHAR

STARTCHAR I
ENCODING 73
SWIDTH 300 0
DWIDTH 8 0
BBX 8 19 0 0
BITMAP
1F
0E
0C
0C
0C
0C
1C
18
18
18
18
18
38
30
30
30
30
70
F8
ENDCHAR

STARTCHAR J
ENCODING 74
SWIDTH 500 0
DWIDTH 12 0
BBX 13 19 0 0
BITMAP
00F8
0070
0060
0060
0060
0060
00C0
00C0
00C0
00C0
00C0
00C0
3180
7180
C180
C180
C380
FF00
3E00
ENDCHAR

STARTCHAR K
ENCODING 75
SWIDTH 700 0
DWIDTH 17 0
BBX 17 19 0 0
BITMAP
1F0F80
0E0700
0C0E00
0C1C00
0C1800
0C3000
186000
18C000
198000
1BC000
1EE000
1C6000
383000
303000
301800
301800
301C00
700C00
F81E00
ENDCHAR

STARTCHAR L
ENCODING 76
SWIDTH 640 0
DWIDTH 16 0
BBX 13 19 1 0
BITMAP
1F00
0E00
0C00
0C00
0C00
0C00
1800
1800
1800
1800
1800
1800
3000
3000
3000
3000
3008
7FF8
FFF0
ENDCHAR

STARTCHAR M
ENCODING 77
SWIDTH 880 0
DWIDTH 22 0
BBX 21 19 0 0
BITMAP
1E00F8
0E00F0
0E01E0
0F01E0
0B0360
1B0360
1B06C0
1B86C0
198CC0
198CC0
1998C0
10D8C0
30F1C0
30F180
30E180
304180
304180
700380
F807C0
ENDCHAR

STARTCHAR N
ENCODING 78
SWIDTH 780 0
DWIDTH 20 0
BBX 20 19 0 0
BITMAP
1F00F0
0F00E0
0F80C0
0DC0C0
0CC0C0
0CE0C0
0C7180
183180
183980
181980
181D80
180D80
180D00
300700
300700
300700
300300
700300
F80300
ENDCHAR

STARTCHAR O
ENCODING 79
SWIDTH 780 0
DWIDTH 19 0
BBX 17 19 1 0
BITMAP
01F000
07FC00
1F1E00
1C0700
380300
700300
600380
600180
E00180
C00180
C00380
C00300
E00300
E00700
600E00
701C00
387C00
1FF000
07C000
ENDCHAR

STARTCHAR P
ENCODING 80
SWIDTH 640 0
DWIDTH 16 0
BBX 16 19 0 0
BITMAP
1FFC
0FFE
0C07
0C03
0C03
0C03
1807
180E
181C
1878
1FE0
1F00
1800
3000
3000
3000
3000
7800
F800
ENDCHAR

STARTCHAR Q
ENCODING 81
SWIDTH 780 0
DWIDTH 19 0
BBX 17 22 1 -3
BITMAP
01F000
07FC00
1F1E00
1C0700
380300
700300
600380
600180
E00180
C00180
C00180
C00300
E00300
E00700
600600
710C00
393C00
1FF000
07E000
00C000
007C00
001C00
ENDCHAR

STARTCHAR R
ENCODING 82
SWIDTH 700 0
DWIDTH 17 0
BBX 16 19 0 0
BITMAP
1FFC
0FFE
0C07
0C03
0C03
0C07
180E
181C
1878
1FE0
1FF0
1830
1838
3018
3018
301C
300C
780C
F81E
ENDCHAR

STARTCHAR S
ENCODING 83
SWIDTH 620 0
DWIDTH 15 0
BBX 13 19 1 0
BITMAP
07C0
1FF8
3838
3018
3008
3000
3800
1E00
0F80
03C0
01E0
0070
0030
C030
C030
C070
E0E0
7FC0
1F00
ENDCHAR

STARTCHAR T
ENCODING 84
SWIDTH 660 0
DWIDTH 16 0
BBX 14 19 2 0
BITMAP
FFFC
FFFC
8304
0300
0300
0300
0700
0600
0600
0600
0600
0600
0E00
0C00
0C00
0C00
0C00
1C00
3E00
ENDCHAR

STARTCHAR U
ENCODING 85
SWIDTH 760 0
DWIDTH 19 0
BBX 17 19 2 0
BITMAP
7C0780
780300
300300
300300
300300
700600
600600
600600
600600
600600
E00600
C00400
C00C00
C00C00
C00C00
E01800
703800
3FF000
1FC000
ENDCHAR

STARTCHAR V
ENCODING 86
SWIDTH 700 0
DWIDTH 17 0
BBX 16 19 2 0
BITMAP
F80F
7006
6006
600C
600C
600C
6018
7018
7030
3030
3060
3060
38C0
18C0
1980
1D00
0F00
0E00
0400
ENDCHAR

STARTCHAR W
ENCODING 87
SWIDTH 980 0
DWIDTH 24 0
BBX 22 19 2 0
BITMAP
F8783C
703018
603018
607010
607030
607030
60F030
60F060
60B060
61B040
61B0C0
3318C0
331980
361980
361B00
3C0F00
3C0E00
180600
100400
ENDCHAR

STARTCHAR X
ENCODING 88
SWIDTH 740 0
DWIDTH 18 0
BBX 19 19 -1 0
BITMAP
1F03E0
0E01C0
0E0380
060700
070600
030C00
039800
01F000
00E000
00E000
01F000
03B800
071800
0E1C00
1C0E00
180E00
380700
700700
F80F80
ENDCHAR

STARTCHAR Y
ENCODING 89
SWIDTH 740 0
DWIDTH 18 0
BBX 17 19 2 0
BITMAP
F80F80
700700
700600
300E00
380C00
181800
1C3000
0C3000
066000
07C000
038000
018000
018000
030000
030000
030000
070000
070000
0F8000
ENDCHAR

STARTCHAR Z
ENCODING 90
SWIDTH 580 0
DWIDTH 14 0
BBX 15 19 -1 0
BITMAP
0FFE
1FFE
180C
001C
0038
0030
0070
00E0
01C0
0380
0700
0E00
0C00
1800
3800
7008
6018
FFF8
FFF0
ENDCHAR

STARTCHAR bracketleft
ENCODING 91
SWIDTH 220 0
DWIDTH 6 0
BBX 7 23 -1 -4
BITMAP
1E
1C
18
18
10
30
30
30
30
30
30
60
60
60
60
60
60
40
C0
C0
C0
E0
F0
ENDCHAR

STARTCHAR backslash
ENCODING 92
SWIDTH 600 0
DWIDTH 15 0
BBX 7 19 4 0
BITMAP
C0
C0
C0
60
60
60
30
30
30
38
18
18
18
0C
0C
0C
06
06
06
ENDCHAR

STARTCHAR bracketright
ENCODING 93
SWIDTH 220 0
DWIDTH 6 0
BBX 7 23 -1 -4
BITMAP
1E
0E
06
06
06
0C
0C
0C
0C
0C
0C
08
18
18
18
18
18
30
30
30
30
70
F0
ENDCHAR

STARTCHAR asciicircum
ENCODING 94
SWIDTH 660 0
DWIDTH 15 0
BBX 12 12 1 7
BITMAP
0600
0600
0F00
0900
1980
1980
30C0
30C0
6060
6060
C030
C030
ENDCHAR

STARTCHAR underscore
ENCODING 95
SWIDTH 500 0
DWIDTH 13 0
BBX 13 2 -1 -4
BITMAP
FFF8
FFF8
ENDCHAR

STARTCHAR quoteleft
ENCODING 96
SWIDTH 300 0
DWIDTH 8 0
BBX 3 6 3 13
BITMAP
20
40
C0
E0
E0
40
ENDCHAR

STARTCHAR a
ENCODING 97
SWIDTH 520 0
DWIDTH 13 0
BBX 11 12 1 0
BITMAP
0FA0
1DE0
30E0
6060
6060
C0C0
C0C0
C0C0
C1C0
E3C0
7EE0
1CC0
ENDCHAR

STARTCHAR b
ENCODING 98
SWIDTH 540 0
DWIDTH 14 0
BBX 11 19 2 0
BITMAP
3000
7000
3000
3000
3000
6000
6000
6780
7FC0
78E0
7060
6060
6060
C060
C0C0
C1C0
E380
FF00
9C00
ENDCHAR

STARTCHAR c
ENCODING 99
SWIDTH 460 0
DWIDTH 12 0
BBX 10 12 1 0
BITMAP
0F00
3F80
71C0
60C0
E000
C000
C000
C000
E000
6180
7F00
1E00
ENDCHAR

STARTCHAR d
ENCODING 100
SWIDTH 580 0
DWIDTH 15 0
BBX 13 19 1 0
BITMAP
0018
0038
0018
0018
0018
0030
0030
0730
1FB0
38F0
6070
6070
C060
C060
C060
C0E0
E1E0
7F70
3E60
ENDCHAR

STARTCHAR e
ENCODING 101
SWIDTH 500 0
DWIDTH 12 0
BBX 11 12 0 0
BITMAP
07C0
1FE0
3060
6060
60C0
FF80
FE00
C000
C060
60C0
7F80
1E00
ENDCHAR

STARTCHAR f
ENCODING 102
SWIDTH 360 0
DWIDTH 9 0
BBX 11 24 -2 -5
BITMAP
00E0
01E0
0380
0300
0300
0300
0300
1FC0
1FC0
0600
0600
0600
0600
0600
0C00
0C00
0C00
0C00
0C00
0C00
1800
1800
F000
E000
ENDCHAR

STARTCHAR g
ENCODING 103
SWIDTH 520 0
DWIDTH 14 0
BBX 13 17 0 -5
BITMAP
07F8
1FE8
3860
3030
7030
6030
6030
6030
6060
70E0
3F80
0FC0
0060
6060
C0E0
FFC0
3F00
ENDCHAR

STARTCHAR h
ENCODING 104
SWIDTH 580 0
DWIDTH 15 0
BBX 12 19 1 0
BITMAP
1800
3800
1800
1800
1800
3000
3000
37E0
3E70
3830
3830
7030
7030
6030
6060
6060
6060
E070
C060
ENDCHAR

STARTCHAR i
ENCODING 105
SWIDTH 280 0
DWIDTH 7 0
BBX 4 16 2 0
BITMAP
30
30
00
00
60
E0
60
60
60
60
C0
C0
C0
C0
E0
C0
ENDCHAR

STARTCHAR j
ENCODING 106
SWIDTH 260 0
DWIDTH 7 0
BBX 8 21 -2 -5
BITMAP
03
03
00
00
06
0E
06
06
06
0C
0C
0C
0C
0C
18
18
18
18
18
F0
E0
ENDCHAR

STARTCHAR k
ENCODING 107
SWIDTH 560 0
DWIDTH 14 0
BBX 10 19 2 0
BITMAP
3000
7000
3000
3000
3000
6000
6000
61C0
67C0
6E00
7C00
7800
6C00
6C00
E600
C600
C700
C3C0
C180
ENDCHAR

STARTCHAR l
ENCODING 108
SWIDTH 300 0
DWIDTH 7 0
BBX 4 19 2 0
BITMAP
10
70
30
30
30
30
60
60
60
60
60
60
60
C0
C0
C0
C0
E0
C0
ENDCHAR

STARTCHAR m
ENCODING 109
SWIDTH 880 0
DWIDTH 22 0
BBX 19 12 1 0
BITMAP
67C7C0
EDEEE0
787860
707060
707060
606060
606060
C0C0C0
C0C0C0
C0C0C0
C0C0E0
C0C0C0
ENDCHAR

STARTCHAR n
ENCODING 110
SWIDTH 600 0
DWIDTH 15 0
BBX 11 12 2 0
BITMAP
67C0
ECE0
7860
7060
6060
6060
6060
C0C0
C0C0
C0C0
C0E0
C0C0
ENDCHAR

STARTCHAR o
ENCODING 111
SWIDTH 560 0
DWIDTH 14 0
BBX 12 12 1 0
BITMAP
0F80
3DE0
7060
6030
E030
C030
C030
C070
C060
60E0
7BC0
1F00
ENDCHAR

STARTCHAR p
ENCODING 112
SWIDTH 580 0
DWIDTH 14 0
BBX 14 17 -1 -5
BITMAP
19F0
3BF8
1E1C
1C0C
180C
180C
300C
3018
3038
3470
37E0
33C0
6000
6000
6000
F000
F000
ENDCHAR

STARTCHAR q
ENCODING 113
SWIDTH 560 0
DWIDTH 14 0
BBX 12 17 1 -5
BITMAP
0F90
3DF0
70F0
6060
E060
C060
C060
C0C0
C0C0
E1C0
77C0
1CC0
0180
0180
0180
0380
07C0
ENDCHAR

STARTCHAR r
ENCODING 114
SWIDTH 400 0
DWIDTH 10 0
BBX 8 12 2 0
BITMAP
67
EF
79
70
60
60
60
60
C0
C0
C0
C0
ENDCHAR

STARTCHAR s
ENCODING 115
SWIDTH 420 0
DWIDTH 11 0
BBX 9 12 0 0
BITMAP
1E00
3F00
6180
6180
7800
3E00
0F00
0380
C180
C380
7F00
3C00
ENDCHAR

STARTCHAR t
ENCODING 116
SWIDTH 360 0
DWIDTH 9 0
BBX 6 17 2 0
BITMAP
10
10
30
30
30
FC
FC
60
60
60
60
C0
C0
C0
D8
F0
E0
ENDCHAR

STARTCHAR u
ENCODING 117
SWIDTH 580 0
DWIDTH 15 0
BBX 11 12 2 0
BITMAP
6060
E060
6060
6060
6060
C0C0
C0C0
C0C0
C1C0
E3C0
7EE0
3C40
ENDCHAR

STARTCHAR v
ENCODING 118
SWIDTH 480 0
DWIDTH 12 0
BBX 10 12 1 0
BITMAP
6180
E1C0
60C0
60C0
60C0
60C0
C0C0
C180
C180
E300
7E00
3800
ENDCHAR

STARTCHAR w
ENCODING 119
SWIDTH 720 0
DWIDTH 17 0
BBX 15 12 1 0
BITMAP
618C
E18E
6186
6186
6186
C186
C306
C306
C30C
C70C
EDD8
78F0
ENDCHAR

STARTCHAR x
ENCODING 120
SWIDTH 540 0
DWIDTH 13 0
BBX 12 12 0 0
BITMAP
3860
78F0
1CC0
0D80
0F00
0600
0700
0F00
1980
31C0
F0F0
6060
ENDCHAR

STARTCHAR y
ENCODING 121
SWIDTH 500 0
DWIDTH 13 0
BBX 12 17 0 -5
BITMAP
1860
7870
3030
3030
3030
3030
3060
3060
18C0
19C0
1F80
0D80
0300
0600
CC00
F800
7000
ENDCHAR

STARTCHAR z
ENCODING 122
SWIDTH 460 0
DWIDTH 12 0
BBX 11 12 0 0
BITMAP
1FE0
3FE0
30C0
0180
0300
0600
0C00
1800
3000
60C0
FFC0
FF80
ENDCHAR

STARTCHAR braceleft
ENCODING 123
SWIDTH 300 0
DWIDTH 8 0
BBX 8 23 0 -4
BITMAP
03
04
0C
0C
0C
18
18
18
18
18
30
E0
30
30
30
30
20
60
60
60
60
20
18
ENDCHAR

STARTCHAR bar
ENCODING 124
SWIDTH 660 0
DWIDTH 17 0
BBX 2 19 7 0
BITMAP
C0
C0
C0
C0
C0
C0
C0
C0
C0
C0
C0
C0
C0
C0
C0
C0
C0
C0
C0
ENDCHAR

STARTCHAR braceright
ENCODING 125
SWIDTH 300 0
DWIDTH 8 0
BBX 8 23 -1 -4
BITMAP
18
04
06
06
06
0C
0C
0C
0C
0C
06
03
0C
18
18
18
18
18
30
30
30
20
C0
ENDCHAR

STARTCHAR asciitilde
ENCODING 126
SWIDTH 660 0
DWIDTH 15 0
BBX 13 4 1 5
BITMAP
3C08
7F18
C3F0
81E0
ENDCHAR

STARTCHAR exclamdown
ENCODING 161
SWIDTH 300 0
DWIDTH 8 0
BBX 4 19 2 -5
BITMAP
30
30
30
00
00
20
20
60
60
60
60
60
60
C0
C0
C0
C0
C0
C0
ENDCHAR

STARTCHAR cent
ENCODING 162
SWIDTH 600 0
DWIDTH 15 0
BBX 10 19 2 0
BITMAP
0100
0300
0300
0780
1FC0
38C0
70C0
6000
E000
C000
C000
C000
E0C0
61C0
7F80
1E00
0C00
0C00
0800
ENDCHAR

STARTCHAR sterling
ENCODING 163
SWIDTH 600 0
DWIDTH 15 0
BBX 12 19 1 0
BITMAP
07E0
0E70
0C30
1830
1800
1800
1800
1800
1800
7FC0
7FC0
1800
1800
1800
3000
3000
7C30
FFE0
43C0
ENDCHAR

STARTCHAR currency
ENCODING 164
SWIDTH 740 0
DWIDTH 15 0
BBX 13 13 1 3
BITMAP
CF98
FFF8
78F0
6030
E038
C018
C018
C018
E038
6030
78F0
FFF8
CF98
ENDCHAR

STARTCHAR yen
ENCODING 165
SWIDTH 800 0
DWIDTH 15 0
BBX 16 19 0 0
BITMAP
F81F
700E
700C
301C
3818
1830
1C60
0C60
06C0
0780
3FF0
0300
0300
7FE0
0600
0600
0E00
0E00
1F00
ENDCHAR

STARTCHAR brokenbar
ENCODING 166
SWIDTH 660 0
DWIDTH 17 0
BBX 2 19 7 0
BITMAP
C0
C0
C0
C0
C0
C0
C0
00
00
00
00
C0
C0
C0
C0
C0
C0
C0
C0
ENDCHAR

STARTCHAR section
ENCODING 167
SWIDTH 560 0
DWIDTH 14 0
BBX 13 23 0 -4
BITMAP
01C0
0770
0C38
1818
1810
1C00
0E00
0780
1DE0
3070
6030
6030
6030
3060
3DE0
0F00
0380
01C0
C0C0
C0C0
61C0
7F80
3E00
ENDCHAR

STARTCHAR dieresis
ENCODING 168
SWIDTH 360 0
DWIDTH 9 0
BBX 7 3 2 14
BITMAP
C6
C6
C6
ENDCHAR

STARTCHAR copyright
ENCODING 169
SWIDTH 820 0
DWIDTH 21 0
BBX 19 19 1 0
BITMAP
03F800
0E0E00
380380
200080
60F8C0
43FC40
C71860
860820
8C0020
8C0020
8C0020
8C0820
C61860
47F040
63E0C0
200080
380380
0E0E00
03F800
ENDCHAR

STARTCHAR ordfeminine
ENCODING 170
SWIDTH 400 0
DWIDTH 10 0
BBX 8 10 1 9
BITMAP
3D
67
C3
C2
C6
CE
7B
00
00
FE
ENDCHAR

STARTCHAR guillemotleft
ENCODING 171
SWIDTH 360 0
DWIDTH 9 0
BBX 8 7 0 4
BITMAP
11
22
64
CC
CC
44
22
ENDCHAR

STARTCHAR logicalnot
ENCODING 172
SWIDTH 660 0
DWIDTH 15 0
BBX 13 8 1 2
BITMAP
FFF8
FFF8
0018
0018
0018
0018
0018
0018
ENDCHAR

STARTCHAR hyphen
ENCODING 173
SWIDTH 260 0
DWIDTH 7 0
BBX 5 2 0 6
BITMAP
F8
F8
ENDCHAR

STARTCHAR registered
ENCODING 174
SWIDTH 820 0
DWIDTH 21 0
BBX 19 19 1 0
BITMAP
03F800
0E0E00
380380
200080
63F8C0
41FC40
C18C60
810C20
831820
83F020
833020
831820
C61860
461840
6F1CC0
200080
380380
0E0E00
03F800
ENDCHAR

STARTCHAR macron
ENCODING 175
SWIDTH 300 0
DWIDTH 8 0
BBX 6 2 2 14
BITMAP
FC
FC
ENDCHAR

STARTCHAR degree
ENCODING 176
SWIDTH 400 0
DWIDTH 9 0
BBX 6 6 2 13
BITMAP
78
CC
84
84
CC
78
ENDCHAR

STARTCHAR plusminus
ENCODING 177
SWIDTH 660 0
DWIDTH 15 0
BBX 12 13 1 1
BITMAP
0600
0600
0600
0600
FFF0
FFF0
0600
0600
0600
0600
0000
FFF0
FFF0
ENDCHAR

STARTCHAR twosuperior
ENCODING 178
SWIDTH 360 0
DWIDTH 9 0
BBX 8 11 1 8
BITMAP
1E
33
63
63
06
0C
18
30
60
C6
FC
ENDCHAR

STARTCHAR threesuperior
ENCODING 179
SWIDTH 360 0
DWIDTH 9 0
BBX 8 11 1 8
BITMAP
1E
33
63
63
06
1C
06
06
C6
CC
78
ENDCHAR

STARTCHAR acute
ENCODING 180
SWIDTH 280 0
DWIDTH 7 0
BBX 5 4 1 13
BITMAP
18
38
60
80
ENDCHAR

STARTCHAR mu
ENCODING 181
SWIDTH 580 0
DWIDTH 15 0
BBX 13 17 0 -5
BITMAP
1818
3818
1818
1818
1818
3030
3030
3030
3070
78F0
7FB8
6F10
6000
4000
C000
C000
C000
ENDCHAR

STARTCHAR paragraph
ENCODING 182
SWIDTH 680 0
DWIDTH 17 0
BBX 16 22 1 -3
BITMAP
0FFF
3FFF
786C
E06C
C06C
C048
C048
C0D8
E0D8
7FD8
3F90
0090
0090
01B0
01B0
01B0
0120
0120
0360
0360
0360
0360
ENDCHAR

STARTCHAR periodcentered
ENCODING 183
SWIDTH 300 0
DWIDTH 8 0
BBX 2 3 3 6
BITMAP
C0
C0
C0
ENDCHAR

STARTCHAR cedilla
ENCODING 184
SWIDTH 380 0
DWIDTH 10 0
BBX 6 4 0 -4
BITMAP
10
38
8C
78
ENDCHAR

STARTCHAR onesuperior
ENCODING 185
SWIDTH 360 0
DWIDTH 9 0
BBX 6 11 1 8
BITMAP
0C
3C
0C
08
18
18
10
30
30
30
FC
ENDCHAR

STARTCHAR ordmasculine
ENCODING 186
SWIDTH 400 0
DWIDTH 10 0
BBX 8 10 1 9
BITMAP
1C
67
C3
C3
C3
E6
38
00
00
FE
ENDCHAR

STARTCHAR guillemotright
ENCODING 187
SWIDTH 360 0
DWIDTH 9 0
BBX 8 7 0 4
BITMAP
44
22
33
33
66
44
88
ENDCHAR

STARTCHAR onequarter
ENCODING 188
SWIDTH 900 0
DWIDTH 22 0
BBX 18 19 1 0
BITMAP
0C0600
3C0400
0C0C00
080800
181800
181000
103000
302000
3060C0
3041C0
FCC2C0
0084C0
018980
011980
031180
023100
063FC0
040300
0C0780
ENDCHAR

STARTCHAR onehalf
ENCODING 189
SWIDTH 900 0
DWIDTH 22 0
BBX 19 19 1 0
BITMAP
0C0600
3C0400
0C0C00
080800
181800
181000
103000
302000
3063C0
304660
FCCC60
008C60
0180C0
010180
030300
020600
060C00
0418C0
0C1F80
ENDCHAR

STARTCHAR threequarters
ENCODING 190
SWIDTH 900 0
DWIDTH 22 0
BBX 18 19 1 0
BITMAP
1E0600
330400
630C00
630800
061800
1C1000
063000
062000
C660C0
CC41C0
78C2C0
0084C0
018980
011980
031180
023100
063FC0
040300
0C0780
ENDCHAR

STARTCHAR questiondown
ENCODING 191
SWIDTH 420 0
DWIDTH 11 0
BBX 9 19 0 -5
BITMAP
0180
0180
0180
0000
0000
0100
0100
0300
0600
1C00
3800
7000
E000
C000
C180
C180
E380
7F00
3E00
ENDCHAR

STARTCHAR Agrave
ENCODING 192
SWIDTH 740 0
DWIDTH 19 0
BBX 18 24 0 0
BITMAP
00E000
007000
001800
000400
000000
001800
003800
007C00
00EC00
00CC00
018C00
038600
030600
060600
060600
0C0300
0FFF00
1FFF00
180300
300300
300300
600300
600380
F007C0
ENDCHAR

STARTCHAR Aacute
ENCODING 193
SWIDTH 740 0
DWIDTH 19 0
BBX 18 24 0 0
BITMAP
000700
000E00
001800
002000
000000
001800
003800
007C00
00EC00
00CC00
018C00
038600
030600
060600
060600
0C0300
0FFF00
1FFF00
180300
300300
300300
600300
600380
F007C0
ENDCHAR

STARTCHAR Acircumflex
ENCODING 194
SWIDTH 740 0
DWIDTH 19 0
BBX 18 24 0 0
BITMAP
001800
003C00
006600
008200
000000
001800
003800
007C00
00EC00
00CC00
018C00
038600
030600
060600
060600
0C0300
0FFF00
1FFF00
180300
300300
300300
600300
600380
F007C0
ENDCHAR

STARTCHAR Atilde
ENCODING 195
SWIDTH 740 0
DWIDTH 19 0
BBX 18 23 0 0
BITMAP
007100
00DB00
008E00
000000
001800
003800
007C00
00EC00
00CC00
018C00
038600
030600
060600
060600
0C0300
0FFF00
1FFF00
180300
300300
300300
600300
600380
F007C0
ENDCHAR

STARTCHAR Adieresis
ENCODING 196
SWIDTH 740 0
DWIDTH 19 0
BBX 18 24 0 0
BITMAP
006600
006600
006600
000000
000000
001800
003800
007C00
00EC00
00CC00
018C00
038600
030600
060600
060600
0C0300
0FFF00
1FFF00
180300
300300
300300
600300
600380
F007C0
ENDCHAR

STARTCHAR Aring
ENCODING 197
SWIDTH 740 0
DWIDTH 19 0
BBX 18 24 0 0
BITMAP
001C00
003600
003600
001C00
000000
001800
003800
007C00
00EC00
00CC00
018C00
038600
030600
060600
060600
0C0300
0FFF00
1FFF00
180300
300300
300300
600300
600380
F007C0
ENDCHAR

STARTCHAR AE
ENCODING 198
SWIDTH 960 0
DWIDTH 24 0
BBX 24 19 0 0
BITMAP
007FFF
003FFF
003601
006600
00C600
01CC00
018C00
030C08
030FF8
060FF8
060C08
0FFC00
0FF800
181800
181800
301800
301802
703FFE
F87FFC
ENDCHAR

STARTCHAR Ccedilla
ENCODING 199
SWIDTH 720 0
DWIDTH 18 0
BBX 16 23 1 -4
BITMAP
01F8
07FF
1E07
1C03
3003
7001
6000
6000
C000
C000
C000
C000
C000
E000
6006
7006
3C1C
1FF8
07E0
0080
01C0
0460
03C0
ENDCHAR

STARTCHAR Egrave
ENCODING 200
SWIDTH 660 0
DWIDTH 16 0
BBX 15 24 0 0
BITMAP
0700
0380
00C0
0020
0000
1FFE
0FFE
0C02
0C00
1C00
1800
1800
1810
1FF0
1FF0
1810
1800
3800
3000
3000
3000
3004
7FFC
FFF8
ENDCHAR

STARTCHAR Eacute
ENCODING 201
SWIDTH 660 0
DWIDTH 16 0
BBX 15 24 0 0
BITMAP
001C
0038
0060
0080
0000
1FFE
0FFE
0C02
0C00
1C00
1800
1800
1810
1FF0
1FF0
1810
1800
3800
3000
3000
3000
3004
7FFC
FFF8
ENDCHAR

STARTCHAR Ecircumflex
ENCODING 202
SWIDTH 660 0
DWIDTH 16 0
BBX 15 24 0 0
BITMAP
0060
00F0
0198
0208
0000
1FFE
0FFE
0C02
0C00
1C00
1800
1800
1810
1FF0
1FF0
1810
1800
3800
3000
3000
3000
3004
7FFC
FFF8
ENDCHAR

STARTCHAR Edieresis
ENCODING 203
SWIDTH 660 0
DWIDTH 16 0
BBX 15 24 0 0
BITMAP
0318
0318
0318
0000
0000
1FFE
0FFE
0C02
0C00
1C00
1800
1800
1810
1FF0
1FF0
1810
1800
3800
3000
3000
3000
3004
7FFC
FFF8
ENDCHAR

STARTCHAR Igrave
ENCODING 204
SWIDTH 300 0
DWIDTH 8 0
BBX 8 24 0 0
BITMAP
70
38
0C
02
00
1F
0E
0C
0C
0C
0C
1C
18
18
18
18
18
38
30
30
30
30
70
F8
ENDCHAR

STARTCHAR Iacute
ENCODING 205
SWIDTH 300 0
DWIDTH 8 0
BBX 11 24 0 0
BITMAP
00E0
01C0
0300
0400
0000
1F00
0E00
0C00
0C00
0C00
0C00
1C00
1800
1800
1800
1800
1800
3800
3000
3000
3000
3000
7000
F800
ENDCHAR

STARTCHAR Icircumflex
ENCODING 206
SWIDTH 300 0
DWIDTH 8 0
BBX 9 24 0 0
BITMAP
0600
0F00
1980
2080
0000
1F00
0E00
0C00
0C00
0C00
0C00
1C00
1800
1800
1800
1800
1800
3800
3000
3000
3000
3000
7000
F800
ENDCHAR

STARTCHAR Idieresis
ENCODING 207
SWIDTH 300 0
DWIDTH 8 0
BBX 9 24 0 0
BITMAP
1980
1980
1980
0000
0000
1F00
0E00
0C00
0C00
0C00
0C00
1C00
1800
1800
1800
1800
1800
3800
3000
3000
3000
3000
7000
F800
ENDCHAR

STARTCHAR Eth
ENCODING 208
SWIDTH 760 0
DWIDTH 19 0
BBX 18 19 0 0
BITMAP
1FF800
0FFE00
0C0700
0C0380
0C0180
0C0180
1C00C0
1800C0
FF80C0
FF80C0
1800C0
180180
380180
300380
300300
300F00
301C00
7FF800
FFE000
ENDCHAR

STARTCHAR Ntilde
ENCODING 209
SWIDTH 780 0
DWIDTH 20 0
BBX 20 23 0 0
BITMAP
007100
00DB00
008E00
000000
1F00F0
0F00E0
0F80C0
0DC0C0
0CC0C0
0CE0C0
0C7180
183180
183980
181980
181D80
180D80
180D00
300700
300700
300700
300300
700300
F80300
ENDCHAR

STARTCHAR Ograve
ENCODING 210
SWIDTH 780 0
DWIDTH 19 0
BBX 17 24 1 0
BITMAP
038000
01C000
006000
001000
000000
01F000
07FC00
1F1E00
1C0700
380300
700300
600380
600180
E00180
C00180
C00380
C00300
E00300
E00700
600E00
701C00
387C00
1FF000
07C000
ENDCHAR

STARTCHAR Oacute
ENCODING 211
SWIDTH 780 0
DWIDTH 19 0
BBX 17 24 1 0
BITMAP
000E00
001C00
003000
004000
000000
01F000
07FC00
1F1E00
1C0700
380300
700300
600380
600180
E00180
C00180
C00380
C00300
E00300
E00700
600E00
701C00
387C00
1FF000
07C000
ENDCHAR

STARTCHAR Ocircumflex
ENCODING 212
SWIDTH 780 0
DWIDTH 19 0
BBX 17 24 1 0
BITMAP
006000
00F000
019800
020800
000000
01F000
07FC00
1F1E00
1C0700
380300
700300
600380
600180
E00180
C00180
C00380
C00300
E00300
E00700
600E00
701C00
387C00
1FF000
07C000
ENDCHAR

STARTCHAR Otilde
ENCODING 213
SWIDTH 780 0
DWIDTH 19 0
BBX 17 23 1 0
BITMAP
01C400
036C00
023800
000000
01F000
07FC00
1F1E00
1C0700
380300
700300
600380
600180
E00180
C00180
C00380
C00300
E00300
E00700
600E00
701C00
387C00
1FF000
07C000
ENDCHAR

STARTCHAR Odieresis
ENCODING 214
SWIDTH 780 0
DWIDTH 19 0
BBX 17 24 1 0
BITMAP
030C00
030C00
030C00
000000
000000
01F000
07FC00
1F1E00
1C0700
380300
700300
600380
600180
E00180
C00180
C00380
C00300
E00300
E00700
600E00
701C00
387C00
1FF000
07C000
ENDCHAR

STARTCHAR multiply
ENCODING 215
SWIDTH 660 0
DWIDTH 15 0
BBX 12 12 1 1
BITMAP
C030
E070
70E0
39C0
1F80
0F00
0F00
1F80
39C0
70E0
E070
C030
ENDCHAR

STARTCHAR Oslash
ENCODING 216
SWIDTH 780 0
DWIDTH 20 0
BBX 18 19 0 0
BITMAP
00F840
03FEC0
0F8F80
0E0300
1C0780
380D80
3019C0
3030C0
7060C0
60C0C0
6181C0
630180
660180
7C0380
380700
380E00
7C3E00
CFF800
83E000
ENDCHAR

STARTCHAR Ugrave
ENCODING 217
SWIDTH 760 0
DWIDTH 19 0
BBX 17 24 2 0
BITMAP
070000
038000
00C000
002000
000000
7C0780
780300
300300
300300
300300
700600
600600
600600
600600
600600
E00600
C00400
C00C00
C00C00
C00C00
E01800
703800
3FF000
1FC000
ENDCHAR

STARTCHAR Uacute
ENCODING 218
SWIDTH 760 0
DWIDTH 19 0
BBX 17 24 2 0
BITMAP
001C00
003800
006000
008000
000000
7C0780
780300
300300
300300
300300
700600
600600
600600
600600
600600
E00600
C00400
C00C00
C00C00
C00C00
E01800
703800
3FF000
1FC000
ENDCHAR

STARTCHAR Ucircumflex
ENCODING 219
SWIDTH 760 0
DWIDTH 19 0
BBX 17 24 2 0
BITMAP
006000
00F000
019800
020800
000000
7C0780
780300
300300
300300
300300
700600
600600
600600
600600
600600
E00600
C00400
C00C00
C00C00
C00C00
E01800
703800
3FF000
1FC000
ENDCHAR

STARTCHAR Udieresis
ENCODING 220
SWIDTH 760 0
DWIDTH 19 0
BBX 17 24 2 0
BITMAP
031800
031800
031800
000000
000000
7C0780
780300
300300
300300
300300
700600
600600
600600
600600
600600
E00600
C00400
C00C00
C00C00
C00C00
E01800
703800
3FF000
1FC000
ENDCHAR

STARTCHAR Yacute
ENCODING 221
SWIDTH 740 0
DWIDTH 18 0
BBX 17 24 2 0
BITMAP
003800
007000
00C000
010000
000000
F80F80
700700
700600
300E00
380C00
181800
1C3000
0C3000
066000
07C000
038000
018000
018000
030000
030000
030000
070000
070000
0F8000
ENDCHAR

STARTCHAR Thorn
ENCODING 222
SWIDTH 640 0
DWIDTH 16 0
BBX 15 19 0 0
BITMAP
1F80
0E00
0C00
0FF8
0FFC
0C0E
0C06
1806
1806
180E
181C
1838
30F0
3FC0
3E00
3000
3000
7800
FE00
ENDCHAR

STARTCHAR germandbls
ENCODING 223
SWIDTH 540 0
DWIDTH 14 0
BBX 12 19 1 0
BITMAP
03C0
07E0
0C70
1830
1830
1830
1860
18C0
3180
3300
3380
3180
30C0
60C0
6060
6060
6C60
E6E0
E3C0
ENDCHAR

STARTCHAR agrave
ENCODING 224
SWIDTH 520 0
DWIDTH 13 0
BBX 11 17 1 0
BITMAP
3800
1C00
0600
0100
0000
0FA0
1DE0
30E0
6060
6060
C0C0
C0C0
C0C0
C1C0
E3C0
7EE0
1CC0
ENDCHAR

STARTCHAR aacute
ENCODING 225
SWIDTH 520 0
DWIDTH 13 0
BBX 12 17 1 0
BITMAP
0070
00E0
0180
0200
0000
0FA0
1DE0
30E0
6060
6060
C0C0
C0C0
C0C0
C1C0
E3C0
7EE0
1CC0
ENDCHAR

STARTCHAR acircumflex
ENCODING 226
SWIDTH 520 0
DWIDTH 13 0
BBX 11 17 1 0
BITMAP
0300
0780
0CC0
1040
0000
0FA0
1DE0
30E0
6060
6060
C0C0
C0C0
C0C0
C1C0
E3C0
7EE0
1CC0
ENDCHAR

STARTCHAR atilde
ENCODING 227
SWIDTH 520 0
DWIDTH 13 0
BBX 11 16 1 0
BITMAP
0E20
1B60
11C0
0000
0FA0
1DE0
30E0
6060
6060
C0C0
C0C0
C0C0
C1C0
E3C0
7EE0
1CC0
ENDCHAR

STARTCHAR adieresis
ENCODING 228
SWIDTH 520 0
DWIDTH 13 0
BBX 11 17 1 0
BITMAP
18C0
18C0
18C0
0000
0000
0FA0
1DE0
30E0
6060
6060
C0C0
C0C0
C0C0
C1C0
E3C0
7EE0
1CC0
ENDCHAR

STARTCHAR aring
ENCODING 229
SWIDTH 520 0
DWIDTH 13 0
BBX 11 17 1 0
BITMAP
0380
06C0
06C0
0380
0000
0FA0
1DE0
30E0
6060
6060
C0C0
C0C0
C0C0
C1C0
E3C0
7EE0
1CC0
ENDCHAR

STARTCHAR ae
ENCODING 230
SWIDTH 820 0
DWIDTH 21 0
BBX 19 12 1 0
BITMAP
1F0FC0
7FFFE0
60E060
00C060
03C0C0
1FFF80
78FE00
E0C000
C0C060
C1E0C0
FF7F80
7C1E00
ENDCHAR

STARTCHAR ccedilla
ENCODING 231
SWIDTH 460 0
DWIDTH 12 0
BBX 10 16 1 -4
BITMAP
0F00
3F80
71C0
60C0
E000
C000
C000
C000
E000
6180
7F00
1E00
0800
1C00
4600
3C00
ENDCHAR

STARTCHAR egrave
ENCODING 232
SWIDTH 500 0
DWIDTH 12 0
BBX 11 17 0 0
BITMAP
1C00
0E00
0300
0080
0000
07C0
1FE0
3060
6060
60C0
FF80
FE00
C000
C060
60C0
7F80
1E00
ENDCHAR

STARTCHAR eacute
ENCODING 233
SWIDTH 500 0
DWIDTH 12 0
BBX 11 17 0 0
BITMAP
00E0
01C0
0300
0400
0000
07C0
1FE0
3060
6060
60C0
FF80
FE00
C000
C060
60C0
7F80
1E00
ENDCHAR

STARTCHAR ecircumflex
ENCODING 234
SWIDTH 500 0
DWIDTH 12 0
BBX 11 17 0 0
BITMAP
0300
0780
0C80
1040
0000
07C0
1FE0
3060
6060
60C0
FF80
FE00
C000
C060
60C0
7F80
1E00
ENDCHAR

STARTCHAR edieresis
ENCODING 235
SWIDTH 500 0
DWIDTH 12 0
BBX 11 17 0 0
BITMAP
18C0
18C0
18C0
0000
0000
07C0
1FE0
3060
6060
60C0
FF80
FE00
C000
C060
60C0
7F80
1E00
ENDCHAR

STARTCHAR igrave
ENCODING 236
SWIDTH 280 0
DWIDTH 7 0
BBX 6 17 0 0
BITMAP
E0
70
18
04
00
18
38
18
18
18
18
30
30
30
30
38
30
ENDCHAR

STARTCHAR iacute
ENCODING 237
SWIDTH 280 0
DWIDTH 7 0
BBX 6 17 2 0
BITMAP
1C
38
60
80
00
60
E0
60
60
60
60
C0
C0
C0
C0
E0
C0
ENDCHAR

STARTCHAR icircumflex
ENCODING 238
SWIDTH 280 0
DWIDTH 7 0
BBX 7 17 0 0
BITMAP
18
3C
66
82
00
18
38
18
18
18
18
30
30
30
30
38
30
ENDCHAR

STARTCHAR idieresis
ENCODING 239
SWIDTH 280 0
DWIDTH 7 0
BBX 6 17 1 0
BITMAP
CC
CC
CC
00
00
30
70
30
30
30
30
60
60
60
60
70
60
ENDCHAR

STARTCHAR eth
ENCODING 240
SWIDTH 560 0
DWIDTH 14 0
BBX 12 18 1 0
BITMAP
F180
1E00
1E00
3300
4180
00C0
0FE0
3DE0
7070
6030
E030
C030
C030
C070
C060
60E0
7BC0
1F00
ENDCHAR

STARTCHAR ntilde
ENCODING 241
SWIDTH 600 0
DWIDTH 15 0
BBX 11 16 2 0
BITMAP
1C40
36C0
2380
0000
67C0
ECE0
7860
7060
6060
6060
6060
C0C0
C0C0
C0C0
C0E0
C0C0
ENDCHAR

STARTCHAR ograve
ENCODING 242
SWIDTH 560 0
DWIDTH 14 0
BBX 12 17 1 0
BITMAP
3800
1C00
0600
0100
0000
0F80
3DE0
7060
6030
E030
C030
C030
C070
C060
60E0
7BC0
1F00
ENDCHAR

STARTCHAR oacute
ENCODING 243
SWIDTH 560 0
DWIDTH 14 0
BBX 12 17 1 0
BITMAP
00E0
01C0
0300
0400
0000
0F80
3DE0
7060
6030
E030
C030
C030
C070
C060
60E0
7BC0
1F00
ENDCHAR

STARTCHAR ocircumflex
ENCODING 244
SWIDTH 560 0
DWIDTH 14 0
BBX 12 17 1 0
BITMAP
0300
0780
0CC0
1040
0000
0F80
3DE0
7060
6030
E030
C030
C030
C070
C060
60E0
7BC0
1F00
ENDCHAR

STARTCHAR otilde
ENCODING 245
SWIDTH 560 0
DWIDTH 14 0
BBX 12 16 1 0
BITMAP
0E20
1B60
11C0
0000
0F80
3DE0
7060
6030
E030
C030
C030
C070
C060
60E0
7BC0
1F00
ENDCHAR

STARTCHAR odieresis
ENCODING 246
SWIDTH 560 0
DWIDTH 14 0
BBX 12 17 1 0
BITMAP
18C0
18C0
18C0
0000
0000
0F80
3DE0
7060
6030
E030
C030
C030
C070
C060
60E0
7BC0
1F00
ENDCHAR

STARTCHAR divide
ENCODING 247
SWIDTH 660 0
DWIDTH 15 0
BBX 12 12 1 1
BITMAP
0600
0600
0600
0000
0000
FFF0
FFF0
0000
0000
0600
0600
0600
ENDCHAR

STARTCHAR oslash
ENCODING 248
SWIDTH 560 0
DWIDTH 14 0
BBX 12 14 1 -1
BITMAP
0010
0FB0
3DE0
70E0
61B0
E330
C630
C430
CC70
D860
70E0
7BC0
DF00
8000
ENDCHAR

STARTCHAR ugrave
ENCODING 249
SWIDTH 580 0
DWIDTH 15 0
BBX 11 17 2 0
BITMAP
3800
1C00
0600
0100
0000
6060
E060
6060
6060
6060
C0C0
C0C0
C0C0
C1C0
E3C0
7EE0
3C40
ENDCHAR

STARTCHAR uacute
ENCODING 250
SWIDTH 580 0
DWIDTH 15 0
BBX 11 17 2 0
BITMAP
00E0
01C0
0300
0400
0000
6060
E060
6060
6060
6060
C0C0
C0C0
C0C0
C1C0
E3C0
7EE0
3C40
ENDCHAR

STARTCHAR ucircumflex
ENCODING 251
SWIDTH 580 0
DWIDTH 15 0
BBX 11 17 2 0
BITMAP
0600
0F00
1980
2080
0000
6060
E060
6060
6060
6060
C0C0
C0C0
C0C0
C1C0
E3C0
7EE0
3C40
ENDCHAR

STARTCHAR udieresis
ENCODING 252
SWIDTH 580 0
DWIDTH 15 0
BBX 11 17 2 0
BITMAP
18C0
18C0
18C0
0000
0000
6060
E060
6060
6060
6060
C0C0
C0C0
C0C0
C1C0
E3C0
7EE0
3C40
ENDCHAR

STARTCHAR yacute
ENCODING 253
SWIDTH 500 0
DWIDTH 13 0
BBX 12 22 0 -5
BITMAP
0070
00E0
0180
0200
0000
1860
7870
3030
3030
3030
3030
3060
3060
18C0
19C0
1F80
0D80
0300
0600
CC00
F800
7000
ENDCHAR

STARTCHAR thorn
ENCODING 254
SWIDTH 580 0
DWIDTH 14 0
BBX 14 24 -1 -5
BITMAP
0C00
1C00
0C00
0C00
0C00
0C00
1800
19F0
1BF8
1E1C
1C0C
180C
380C
300C
3018
3038
3470
37E0
63C0
6000
6000
6000
F000
F000
ENDCHAR

STARTCHAR ydieresis
ENCODING 255
SWIDTH 500 0
DWIDTH 13 0
BBX 12 22 0 -5
BITMAP
0C60
0C60
0C60
0000
0000
1860
7870
3030
3030
3030
3030
3060
3060
18C0
19C0
1F80
0D80
0300
0600
CC00
F800
7000
ENDCHAR
ENDFONT
